<svg id="Layer_1" data-name="Layer 1" xmlns="http://www.w3.org/2000/svg" xmlns:xlink="http://www.w3.org/1999/xlink" viewBox="0 0 512 512"><defs><linearGradient id="linear-gradient" x1="256" x2="256" y2="512" gradientUnits="userSpaceOnUse"><stop offset="0" stop-color="#e9ebf5"/><stop offset="0.76" stop-color="#b0c7e1"/><stop offset="1" stop-color="#7697c6"/></linearGradient><linearGradient id="linear-gradient-2" x1="256" y1="405.15" x2="256" y2="106.85" gradientUnits="userSpaceOnUse"><stop offset="0" stop-color="#000013"/><stop offset="1" stop-color="#005c92"/></linearGradient></defs><title>lock</title><path d="M256,512c141,0,256-115,256-256S397,0,256,0,0,115,0,256,115,512,256,512Z" fill-rule="evenodd" fill="url(#linear-gradient)"/><path d="M244.29,106.85c43.85,0,79.91,35.73,79.91,79.63v58a37.93,37.93,0,0,1,29.51,36.88v86A37.85,37.85,0,0,1,316,405.15H172a37.88,37.88,0,0,1-37.77-37.77v-86a38,38,0,0,1,30.2-37V186.48c0-43.9,36.07-79.63,79.91-79.63Zm42.59,136.7V189.28c0-23.65-18.56-44.18-42.59-44.18s-42.6,20.53-42.6,44.18v54.27Zm-34.23,73.7A16.44,16.44,0,1,0,234.9,317l-6.53,44.85h31.17Z" fill="#fff" fill-rule="evenodd"/><path d="M256.34,106.85c43.85,0,79.92,35.73,79.92,79.63v58a37.93,37.93,0,0,1,29.51,36.88v86A37.86,37.86,0,0,1,328,405.15H184a37.88,37.88,0,0,1-37.78-37.77v-86a38,38,0,0,1,30.21-37V186.48c0-43.9,36.07-79.63,79.91-79.63Zm42.6,136.7V189.28c0-23.65-18.57-44.18-42.6-44.18s-42.6,20.53-42.6,44.18v54.27Zm-34.23,73.7a16.44,16.44,0,1,0-17.76-.22l-6.52,44.85H271.6Z" fill-rule="evenodd" fill="url(#linear-gradient-2)"/></svg>